<?xml version="1.0" encoding="UTF-8"?>
<svg xmlns="http://www.w3.org/2000/svg" viewBox="0 0 24 24">
  <path d="M12.62 2.16c.2-.34.524-.593.908-.694l.01-.003a1.325 1.325 0 0 1 1.144.15l-.004-.003c.332.21.58.53.695.906l.003.012a1.358 1.358 0 0 1-.187 1.179l.003-.005L8.805 14.79h4.668c.709 0 1.32.415 1.604 1.018l.005.01c.179.292.283.645.283 1.023 0 .352-.092.683-.253.97l.004-.011H1.501a1.49 1.49 0 0 1-1.061-.442A1.454 1.454 0 0 1 0 16.314v-.022.002-.021c0-.41.168-.779.44-1.044.27-.273.646-.442 1.06-.442H5.36l4.845-8.442L8.73 3.707a1.357 1.357 0 0 1-.18-1.185l-.003.009c.118-.389.365-.707.692-.914l.006-.004a1.323 1.323 0 0 1 1.149-.144l-.01-.003a1.5 1.5 0 0 1 .914.69l.004.008.66 1.174.659-1.177ZM4.767 21.836c-.23.328-.559.573-.941.695l-.012.003a1.338 1.338 0 0 1-1.143-.15l.005.003a1.467 1.467 0 0 1-.696-.908l-.002-.01a1.657 1.657 0 0 1 .15-1.183l-.004.008 1.101-1.836a2.595 2.595 0 0 1 2.931.875l.005.007-1.394 2.496Zm17.692-7.046h.041c.415 0 .79.168 1.061.441.272.266.44.634.44 1.044v.041c0 .41-.168.778-.44 1.044-.27.273-.646.441-1.06.441h-2.17l1.468 2.496a1.536 1.536 0 0 1 .108 1.187l.003-.01a1.639 1.639 0 0 1-.692.913l-.006.004a1.316 1.316 0 0 1-1.145.144l.009.003a1.5 1.5 0 0 1-.914-.69l-.004-.008-5.506-9.616a4.276 4.276 0 0 1-.66-2.294c0-.28.026-.55.077-.816l-.004.027A3.417 3.417 0 0 1 14.16 7.16l.003-.003 4.404 7.635 3.89-.004Z"></path>
</svg>
